<?xml version="1.0" standalone="no"?>
<!DOCTYPE svg PUBLIC "-//W3C//DTD SVG 20010904//EN"
 "http://www.w3.org/TR/2001/REC-SVG-20010904/DTD/svg10.dtd">
<svg version="1.0" xmlns="http://www.w3.org/2000/svg"
 width="800.000000pt" height="400.000000pt" viewBox="0 0 800.000000 400.000000"
 preserveAspectRatio="xMidYMid meet">

<g transform="translate(0.000000,400.000000) scale(0.100000,-0.100000)"
fill="#000000" stroke="none">
<path d="M3886 3578 c-2 -7 -11 -55 -20 -107 -22 -123 -60 -240 -104 -324 -26
-51 -66 -100 -156 -190 -128 -129 -176 -198 -213 -306 -80 -234 58 -455 384
-620 74 -37 94 -40 66 -8 -34 37 -74 106 -98 172 -45 119 -43 226 7 331 25 54
113 153 172 193 l41 28 2 -47 c2 -75 46 -152 139 -244 95 -95 109 -126 102
-230 -5 -73 -39 -168 -76 -210 -17 -18 -16 -19 23 -13 22 4 92 32 155 64 98
49 127 69 196 138 116 114 138 164 142 318 4 136 -11 199 -80 327 -39 74 -146
230 -157 230 -3 0 -30 -25 -61 -55 l-55 -54 -3 44 c-4 66 -38 191 -72 262 -57
123 -127 206 -232 274 -62 40 -96 49 -102 27z"/>
<path d="M2866 1502 c-8 -137 -25 -228 -57 -301 -26 -61 -116 -149 -191 -187
l-50 -25 22 -24 c13 -14 28 -21 34 -18 6 4 41 29 78 55 89 65 141 136 182 253
6 17 12 10 35 -40 47 -100 128 -182 233 -236 l37 -19 21 30 c20 28 20 30 3 36
-121 40 -224 129 -265 232 -20 50 -23 74 -23 202 0 119 -3 146 -15 152 -34 15
-37 8 -44 -110z"/>
<path d="M3606 1607 c-18 -13 -17 -15 3 -55 20 -40 29 -43 63 -25 8 4 -32 93
-42 93 -3 0 -14 -6 -24 -13z"/>
<path d="M4170 1534 l0 -77 -50 5 c-47 5 -50 4 -50 -18 0 -22 4 -24 46 -24
l47 0 -7 -32 c-3 -18 -27 -77 -54 -130 -47 -93 -48 -98 -31 -114 17 -15 20
-12 58 63 l40 78 1 -172 0 -173 25 0 25 0 2 168 3 167 19 -42 c17 -36 21 -40
38 -30 23 15 23 18 -3 62 -15 26 -25 33 -32 26 -22 -22 -27 -10 -27 59 l0 70
45 0 c41 0 45 2 45 24 0 22 -3 23 -45 18 l-45 -5 0 77 c0 74 -1 76 -25 76 -24
0 -25 -2 -25 -76z"/>
<path d="M4427 1530 c-24 -51 -56 -99 -91 -134 -52 -54 -53 -56 -35 -72 19
-17 21 -16 54 16 26 26 35 30 35 17 0 -15 12 -17 95 -17 88 0 95 1 95 20 0 19
-7 20 -90 20 -49 0 -90 2 -90 5 0 10 83 145 89 145 3 0 17 -19 31 -41 32 -53
82 -104 131 -134 48 -31 51 -31 65 -1 10 22 8 25 -33 45 -81 39 -183 151 -169
186 3 9 0 15 -8 15 -8 0 -20 2 -28 5 -8 3 -26 -23 -51 -75z"/>
<path d="M5408 1323 c1 -153 0 -288 -3 -300 -4 -18 -13 -23 -36 -23 -27 0 -30
-3 -23 -22 3 -13 8 -25 10 -27 7 -7 72 10 82 22 7 8 12 128 14 320 l3 307 -25
0 -25 0 3 -277z"/>
<path d="M4846 1574 c-3 -9 -6 -17 -6 -18 0 -1 20 -17 43 -34 40 -28 45 -30
60 -15 14 15 12 19 -28 50 -49 37 -60 40 -69 17z"/>
<path d="M5000 1365 c0 -188 1 -195 20 -195 19 0 20 7 20 175 l0 175 75 0 75
0 0 -175 0 -175 25 0 25 0 0 195 0 195 -120 0 -120 0 0 -195z"/>
<path d="M5300 1310 l0 -200 23 0 22 0 0 200 0 200 -22 0 -23 0 0 -200z"/>
<path d="M3090 1475 c0 -9 -15 -49 -34 -90 l-34 -73 24 -11 c22 -10 26 -8 39
22 7 17 25 59 40 91 14 32 24 60 23 61 -2 1 -15 5 -30 9 -22 5 -28 3 -28 -9z"/>
<path d="M3340 1420 l0 -70 30 0 c29 0 30 1 30 50 l0 50 245 0 245 0 0 -50 c0
-48 1 -50 28 -50 27 0 27 0 27 70 l0 70 -302 0 -303 0 0 -70z"/>
<path d="M2670 1458 c0 -13 -11 -54 -24 -93 -14 -38 -23 -71 -22 -72 1 -2 13
-4 26 -5 23 -3 26 4 50 87 23 80 25 91 11 97 -29 12 -41 8 -41 -14z"/>
<path d="M5098 1369 c6 -145 -28 -271 -97 -358 -28 -36 -29 -38 -10 -49 10 -7
21 -12 24 -12 3 0 21 24 40 53 59 89 76 146 85 297 9 139 6 149 -30 150 -12 0
-14 -14 -12 -81z"/>
<path d="M4826 1394 c-4 -11 8 -28 36 -54 40 -35 44 -37 61 -22 17 15 16 18
-25 53 -48 42 -63 47 -72 23z"/>
<path d="M3610 1342 c0 -63 -25 -157 -56 -209 -30 -52 -101 -108 -166 -131
-26 -9 -48 -19 -48 -23 0 -3 9 -14 20 -24 18 -17 21 -16 83 18 81 46 139 102
172 167 14 27 27 50 29 50 2 0 16 -20 30 -43 33 -57 134 -151 197 -183 l50
-25 19 23 c24 28 25 38 4 38 -33 0 -123 52 -169 97 -67 66 -105 150 -105 231
l0 62 -30 0 c-29 0 -30 -1 -30 -48z"/>
<path d="M3433 1302 c-3 -15 -17 -51 -30 -81 -13 -30 -22 -55 -21 -56 2 -2 12
-5 24 -9 17 -5 24 4 52 70 17 42 30 80 27 84 -3 4 -14 10 -25 13 -16 4 -22 -1
-27 -21z"/>
<path d="M3840 1296 c0 -7 -13 -38 -28 -68 -27 -54 -27 -56 -9 -68 23 -14 17
-20 60 66 36 71 36 72 14 78 -32 8 -37 7 -37 -8z"/>
<path d="M4461 1279 c-17 -7 -21 -14 -15 -27 4 -9 16 -43 27 -75 17 -50 23
-57 41 -51 12 4 22 8 24 9 1 1 -10 36 -25 77 -26 71 -29 75 -52 67z"/>
<path d="M4590 1186 c-18 -55 -39 -113 -46 -128 l-15 -28 -124 0 c-118 0 -125
-1 -125 -20 0 -19 7 -20 220 -20 213 0 220 1 220 20 0 18 -7 20 -70 20 -38 0
-70 1 -70 3 0 1 22 54 48 118 l49 116 -28 10 -27 11 -32 -102z"/>
<path d="M4343 1248 c-22 -11 -22 -11 -4 -47 10 -20 24 -55 31 -78 14 -44 17
-47 44 -37 22 8 20 23 -11 96 -33 78 -33 78 -60 66z"/>
<path d="M4898 1183 c-10 -27 -33 -74 -53 -107 -19 -32 -35 -62 -35 -67 0 -9
40 -33 45 -27 1 2 26 52 54 113 48 101 51 111 34 122 -25 19 -27 17 -45 -34z"/>
<path d="M5148 1109 c-16 -9 -14 -14 20 -58 20 -27 42 -57 49 -67 10 -18 12
-18 29 -2 17 17 17 20 -22 75 -45 63 -51 67 -76 52z"/>
</g>
</svg>
