<?xml version="1.0" standalone="no"?>
<!DOCTYPE svg PUBLIC "-//W3C//DTD SVG 20010904//EN"
 "http://www.w3.org/TR/2001/REC-SVG-20010904/DTD/svg10.dtd">
<svg version="1.0" xmlns="http://www.w3.org/2000/svg"
 width="800.000000pt" height="400.000000pt" viewBox="0 0 800.000000 400.000000"
 preserveAspectRatio="xMidYMid meet">

<g transform="translate(0.000000,400.000000) scale(0.100000,-0.100000)"
fill="#000000" stroke="none">
<path d="M3560 3749 c-59 -26 -115 -81 -148 -144 -22 -43 -27 -66 -30 -157
l-4 -108 -40 0 c-21 0 -52 -7 -68 -15 -26 -13 -30 -21 -30 -55 0 -50 27 -70
92 -70 l48 0 0 -243 0 -243 -39 4 c-23 2 -51 -3 -70 -12 -26 -14 -31 -22 -31
-55 0 -52 23 -71 88 -71 l52 0 0 -88 c0 -50 7 -111 15 -140 21 -69 80 -140
146 -177 l54 -30 480 0 c453 0 482 1 515 19 65 35 108 78 139 136 l31 58 0
599 0 599 -26 51 c-29 60 -88 117 -148 144 -38 17 -72 19 -511 19 -451 0 -472
-1 -515 -21z m1002 -141 c70 -53 68 -34 68 -646 0 -364 -4 -560 -11 -579 -19
-50 -68 -91 -123 -103 -34 -8 -185 -10 -457 -8 l-405 3 -41 27 c-76 50 -73 27
-73 658 0 603 -1 588 52 637 12 12 34 26 48 32 16 6 187 9 466 8 l441 -2 35
-27z"/>
<path d="M3611 3536 c-8 -9 -11 -114 -9 -367 l3 -354 459 -3 c330 -1 463 1
472 9 19 16 21 698 2 717 -19 19 -911 17 -927 -2z m159 -356 l0 -290 -45 0
-45 0 0 290 0 290 45 0 45 0 0 -290z m170 0 l0 -290 -40 0 -40 0 0 290 0 290
40 0 40 0 0 -290z m180 0 l0 -290 -45 0 -45 0 0 290 0 290 45 0 45 0 0 -290z
m170 0 l0 -290 -45 0 -45 0 0 290 0 290 45 0 45 0 0 -290z m175 0 l0 -290 -42
0 -43 0 0 290 0 290 43 0 42 0 0 -290z"/>
<path d="M3610 2728 c-18 -20 -20 -35 -20 -170 0 -166 6 -181 72 -193 18 -3
217 -5 441 -3 l409 3 19 24 c17 20 19 40 19 172 0 136 -2 151 -20 169 -19 19
-33 20 -460 20 -439 0 -439 0 -460 -22z"/>
<path d="M2780 1440 l0 -180 25 0 25 0 0 164 c0 90 3 171 6 180 5 13 -1 16
-25 16 l-31 0 0 -180z"/>
<path d="M2964 1537 c-15 -45 -41 -109 -58 -142 -17 -33 -32 -63 -34 -66 -1
-3 8 -10 21 -16 23 -11 26 -7 62 63 l38 74 124 0 c116 0 123 1 123 20 0 19 -7
20 -115 20 -128 0 -126 -1 -96 67 l19 42 -28 10 -29 10 -27 -82z"/>
<path d="M3788 1520 l5 -100 -52 0 c-44 0 -51 -3 -51 -20 0 -17 7 -20 46 -20
l47 0 -6 -77 c-7 -102 -37 -194 -88 -273 -38 -60 -40 -65 -23 -77 10 -7 21
-13 24 -13 15 0 75 117 98 191 l25 81 22 -59 c21 -58 57 -126 89 -168 15 -20
15 -20 36 1 l21 21 -31 33 c-62 66 -110 195 -110 292 l0 48 65 0 c58 0 65 2
65 20 0 18 -7 20 -65 20 l-65 0 0 100 0 100 -28 0 -29 0 5 -100z"/>
<path d="M4170 1534 l0 -77 -50 5 c-47 5 -50 4 -50 -18 0 -22 4 -24 46 -24
l47 0 -7 -32 c-3 -18 -27 -77 -54 -130 -47 -93 -48 -98 -31 -114 17 -15 20
-12 58 63 l40 78 1 -172 0 -173 25 0 25 0 2 168 3 167 19 -42 c17 -36 21 -40
38 -30 23 15 23 18 -3 62 -15 26 -25 33 -32 26 -22 -22 -27 -10 -27 59 l0 70
45 0 c41 0 45 2 45 24 0 22 -3 23 -45 18 l-45 -5 0 77 c0 74 -1 76 -25 76 -24
0 -25 -2 -25 -76z"/>
<path d="M4427 1530 c-24 -51 -56 -99 -91 -134 -52 -54 -53 -56 -35 -72 19
-17 21 -16 54 16 26 26 35 30 35 17 0 -15 12 -17 95 -17 88 0 95 1 95 20 0 19
-7 20 -90 20 -49 0 -90 2 -90 5 0 10 83 145 89 145 3 0 17 -19 31 -41 32 -53
82 -104 131 -134 48 -31 51 -31 65 -1 10 22 8 25 -33 45 -81 39 -183 151 -169
186 3 9 0 15 -8 15 -8 0 -20 2 -28 5 -8 3 -26 -23 -51 -75z"/>
<path d="M3588 1583 c-14 -16 -12 -23 12 -69 22 -41 31 -49 44 -42 22 12 21
21 -12 78 -27 47 -30 49 -44 33z"/>
<path d="M5408 1323 c1 -153 0 -288 -3 -300 -4 -18 -13 -23 -36 -23 -27 0 -30
-3 -23 -22 3 -13 8 -25 10 -27 7 -7 72 10 82 22 7 8 12 128 14 320 l3 307 -25
0 -25 0 3 -277z"/>
<path d="M3897 1576 c-17 -13 -17 -16 5 -60 24 -49 25 -51 48 -36 13 8 11 16
-10 59 -23 45 -27 49 -43 37z"/>
<path d="M4846 1574 c-3 -9 -6 -17 -6 -18 0 -1 20 -17 43 -34 40 -28 45 -30
60 -15 14 15 12 19 -28 50 -49 37 -60 40 -69 17z"/>
<path d="M2630 1435 l0 -145 25 0 25 0 0 145 0 145 -25 0 -25 0 0 -145z"/>
<path d="M3353 1562 c-9 -14 -5 -23 25 -54 41 -43 38 -49 -34 -96 -41 -28 -42
-30 -26 -45 16 -15 21 -13 64 23 51 44 53 43 63 -37 6 -46 5 -50 -41 -102 -26
-29 -61 -61 -76 -71 -27 -16 -28 -17 -9 -34 18 -16 21 -14 78 49 33 36 64 65
68 65 4 0 5 -36 2 -80 -6 -99 -35 -164 -78 -179 -29 -10 -36 -25 -20 -49 15
-24 87 21 113 71 34 65 38 226 8 354 l-22 95 42 43 c42 42 42 43 20 55 -23 12
-33 5 -61 -42 -14 -26 -29 -22 -69 17 -32 31 -36 33 -47 17z"/>
<path d="M5000 1365 c0 -188 1 -195 20 -195 19 0 20 7 20 175 l0 175 75 0 75
0 0 -175 0 -175 25 0 25 0 0 195 0 195 -120 0 -120 0 0 -195z"/>
<path d="M5300 1310 l0 -200 23 0 22 0 0 200 0 200 -22 0 -23 0 0 -200z"/>
<path d="M5098 1369 c6 -145 -28 -271 -97 -358 -28 -36 -29 -38 -10 -49 10 -7
21 -12 24 -12 3 0 21 24 40 53 59 89 76 146 85 297 9 139 6 149 -30 150 -12 0
-14 -14 -12 -81z"/>
<path d="M3040 1395 c-11 -13 -5 -24 36 -69 27 -30 51 -54 54 -55 3 0 14 6 25
14 18 15 17 17 -35 70 -30 30 -57 55 -61 55 -4 0 -12 -7 -19 -15z"/>
<path d="M4826 1394 c-4 -11 8 -28 36 -54 40 -35 44 -37 61 -22 17 15 16 18
-25 53 -48 42 -63 47 -72 23z"/>
<path d="M3530 1370 c0 -16 7 -20 30 -20 l30 0 0 -131 c0 -76 -5 -139 -11
-151 -9 -16 -7 -24 7 -39 18 -17 21 -15 72 51 63 83 66 90 49 114 -13 18 -15
16 -38 -20 l-24 -39 -3 128 -3 127 -54 0 c-48 0 -55 -2 -55 -20z"/>
<path d="M4461 1279 c-17 -7 -21 -14 -15 -27 4 -9 16 -43 27 -75 17 -50 23
-57 41 -51 12 4 22 8 24 9 1 1 -10 36 -25 77 -26 71 -29 75 -52 67z"/>
<path d="M4590 1186 c-18 -55 -39 -113 -46 -128 l-15 -28 -124 0 c-118 0 -125
-1 -125 -20 0 -19 7 -20 220 -20 213 0 220 1 220 20 0 18 -7 20 -70 20 -38 0
-70 1 -70 3 0 1 22 54 48 118 l49 116 -28 10 -27 11 -32 -102z"/>
<path d="M4343 1248 c-22 -11 -22 -11 -4 -47 10 -20 24 -55 31 -78 14 -44 17
-47 44 -37 22 8 20 23 -11 96 -33 78 -33 78 -60 66z"/>
<path d="M4898 1183 c-10 -27 -33 -74 -53 -107 -19 -32 -35 -62 -35 -67 0 -9
40 -33 45 -27 1 2 26 52 54 113 48 101 51 111 34 122 -25 19 -27 17 -45 -34z"/>
<path d="M2630 1110 l0 -100 -40 0 c-36 0 -40 -2 -40 -25 l0 -25 345 0 345 0
0 25 c0 23 -4 25 -40 25 l-40 0 0 100 0 100 -265 0 -265 0 0 -100z m160 -25
l0 -85 -55 0 -55 0 0 85 0 85 55 0 55 0 0 -85z m160 0 l0 -85 -55 0 -55 0 0
85 0 85 55 0 55 0 0 -85z m160 0 l0 -85 -55 0 -55 0 0 85 0 85 55 0 55 0 0
-85z"/>
<path d="M5148 1109 c-16 -9 -14 -14 20 -58 20 -27 42 -57 49 -67 10 -18 12
-18 29 -2 17 17 17 20 -22 75 -45 63 -51 67 -76 52z"/>
</g>
</svg>
