<?xml version="1.0" standalone="no"?>
<!DOCTYPE svg PUBLIC "-//W3C//DTD SVG 20010904//EN"
 "http://www.w3.org/TR/2001/REC-SVG-20010904/DTD/svg10.dtd">
<svg version="1.0" xmlns="http://www.w3.org/2000/svg"
 width="800.000000pt" height="400.000000pt" viewBox="0 0 800.000000 400.000000"
 preserveAspectRatio="xMidYMid meet">

<g transform="translate(0.000000,400.000000) scale(0.100000,-0.100000)"
fill="#000000" stroke="none">
<path d="M3543 3534 c-29 -14 -67 -42 -85 -62 -18 -21 -73 -121 -123 -227 -82
-174 -90 -196 -93 -261 -3 -61 0 -79 22 -127 15 -30 45 -72 68 -93 34 -31 198
-116 325 -169 l32 -13 -27 -56 -27 -55 -90 -1 -90 0 -29 36 c-49 62 -79 74
-187 74 -70 0 -100 -4 -108 -14 -8 -9 -11 -105 -9 -332 l3 -319 117 -3 117 -3
37 33 c44 39 64 82 64 138 l0 40 113 1 c61 0 142 3 179 8 88 9 113 33 184 171
29 58 57 111 62 118 7 10 47 -5 173 -65 148 -70 170 -77 226 -78 48 0 68 5 91
22 l30 22 72 -35 c89 -43 124 -51 147 -33 9 8 34 52 56 99 22 47 66 141 99
210 49 102 59 132 55 162 -3 24 -1 38 8 41 20 8 95 127 95 152 0 29 -11 38
-112 87 -153 74 -1092 511 -1150 534 -81 34 -176 33 -245 -2z m770 -375 l589
-274 -42 -37 c-81 -73 -190 -87 -300 -39 -114 49 -1045 483 -1054 492 -15 13
45 100 84 121 72 39 86 34 723 -263z m-311 -228 c296 -138 542 -251 548 -251
5 0 10 -2 10 -5 0 -2 -29 -65 -64 -139 -45 -94 -70 -136 -85 -141 -15 -4 -148
53 -483 209 -255 119 -478 225 -496 236 -36 22 -71 88 -72 134 0 38 79 218 94
213 6 -3 253 -118 548 -256z m741 -402 c-37 -79 -68 -145 -69 -147 -2 -3 -83
35 -92 43 -1 1 22 54 52 118 l55 117 38 1 c21 0 47 4 58 8 11 5 21 8 23 6 1
-1 -28 -67 -65 -146z m-853 -48 c-1 -4 -26 -55 -58 -116 l-57 -110 -157 -3
-158 -3 0 51 0 50 118 0 c137 0 130 -4 186 107 l36 73 45 -22 c25 -12 45 -24
45 -27z m-568 -38 c16 -14 18 -35 18 -204 0 -183 -1 -188 -22 -203 -12 -9 -36
-16 -53 -16 l-30 0 3 220 3 220 31 0 c17 0 40 -7 50 -17z"/>
<path d="M3476 3008 c-22 -31 -20 -51 8 -77 30 -29 63 -24 90 12 19 26 19 30
5 55 -20 37 -80 43 -103 10z"/>
<path d="M3692 2924 c-27 -19 -29 -64 -4 -87 58 -53 137 28 82 83 -24 24 -48
25 -78 4z"/>
<path d="M4103 2735 c-23 -16 -31 -58 -15 -81 9 -14 173 -97 225 -114 49 -15
87 6 87 49 0 37 -19 52 -132 105 -120 57 -137 61 -165 41z"/>
<path d="M2843 1603 c-3 -10 -14 -37 -24 -60 l-18 -43 -115 0 c-109 0 -116 -1
-116 -20 0 -19 7 -20 100 -20 65 0 100 -4 100 -11 0 -25 -77 -124 -141 -182
-38 -34 -69 -64 -69 -67 0 -3 10 -11 21 -18 20 -13 26 -9 75 39 l54 53 0 -132
0 -132 25 0 25 0 0 135 0 135 75 0 76 0 -3 -170 -3 -170 28 0 27 0 0 170 0
170 75 0 75 0 0 -93 c0 -102 -7 -117 -52 -117 -26 0 -28 -2 -22 -27 9 -37 6
-36 53 -23 63 17 71 36 71 177 l0 123 -100 0 -100 0 0 55 c0 52 -1 55 -25 55
-24 0 -25 -3 -25 -55 l0 -55 -81 0 c-44 0 -79 3 -77 8 2 4 21 35 43 69 l40 62
193 1 c185 0 192 1 192 20 0 19 -7 20 -180 20 -99 0 -180 2 -180 5 0 2 10 25
22 50 19 40 20 47 8 55 -23 15 -40 12 -47 -7z"/>
<path d="M4930 1595 c0 -23 -3 -25 -50 -25 -38 0 -50 -4 -50 -15 0 -11 12 -15
50 -15 43 0 50 -3 50 -19 0 -18 -94 -111 -112 -111 -10 0 -10 -12 1 -29 7 -10
13 -11 30 -2 20 11 21 9 21 -29 l0 -40 95 0 95 0 0 50 0 50 -87 0 c-85 0 -86
0 -68 20 16 18 31 20 122 20 l103 0 0 -40 c0 -33 -4 -41 -24 -46 -18 -4 -22
-11 -18 -26 4 -15 10 -18 31 -13 36 9 38 12 45 88 l7 67 -100 0 c-55 0 -102 4
-105 8 -3 5 -2 18 1 30 4 18 13 22 49 22 37 0 44 -3 44 -20 0 -13 7 -20 20
-20 13 0 20 7 20 20 0 17 7 20 40 20 29 0 40 4 40 15 0 11 -11 15 -41 15 -39
0 -41 2 -37 25 4 21 1 25 -18 25 -19 0 -24 -5 -24 -25 0 -23 -4 -25 -45 -25
-41 0 -45 2 -45 25 0 18 -5 25 -20 25 -15 0 -20 -7 -20 -25z m90 -235 c0 -18
-7 -20 -55 -20 -48 0 -55 2 -55 20 0 18 7 20 55 20 48 0 55 -2 55 -20z"/>
<path d="M5252 1596 c-6 -13 -25 -40 -42 -60 -26 -30 -30 -39 -20 -51 7 -8 16
-13 20 -10 4 2 24 -21 45 -52 41 -62 39 -68 -27 -79 -34 -6 -36 -8 -26 -29 11
-25 19 -24 95 12 29 13 37 13 75 -1 68 -24 92 -25 96 0 3 18 -3 23 -40 28 -66
10 -71 16 -48 61 11 21 23 54 26 72 6 31 9 33 45 33 31 0 39 4 39 18 0 17 -8
18 -105 14 -58 -3 -105 -1 -105 2 0 4 5 17 11 28 9 16 8 23 -2 29 -21 13 -25
11 -37 -15z m113 -98 c-14 -50 -39 -98 -49 -95 -16 5 -76 86 -76 103 0 11 16
14 66 14 63 0 65 -1 59 -22z"/>
<path d="M3400 1530 l0 -80 -45 0 c-40 0 -45 -2 -45 -23 0 -20 4 -22 45 -19
l45 4 0 -80 0 -80 -49 -12 c-49 -11 -49 -12 -39 -41 l10 -28 39 19 39 20 0
-105 0 -105 -30 0 c-28 0 -30 -2 -24 -27 4 -16 8 -29 8 -30 7 -9 78 22 86 37
5 10 10 71 10 135 l0 116 35 15 c24 10 35 21 35 35 0 16 -4 19 -17 14 -53 -22
-53 -22 -53 50 l0 68 35 -6 c32 -5 35 -4 35 19 0 21 -5 24 -35 24 l-35 0 0 80
c0 79 0 80 -25 80 -25 0 -25 -1 -25 -80z"/>
<path d="M3715 1600 c-3 -5 -1 -18 5 -29 20 -37 13 -41 -80 -41 l-90 0 0 -60
c0 -57 1 -60 25 -60 23 0 25 4 25 40 l0 40 160 0 160 0 0 -40 c0 -36 3 -40 25
-40 24 0 25 3 25 60 l0 59 -92 3 -92 3 -9 38 c-7 30 -14 37 -32 37 -13 0 -27
-4 -30 -10z"/>
<path d="M4080 1545 c0 -19 5 -20 85 -16 47 1 85 0 85 -4 0 -3 -12 -23 -27
-43 -15 -20 -29 -39 -31 -42 -1 -2 -12 2 -24 9 -15 9 -23 10 -31 2 -8 -8 0
-23 30 -53 36 -35 44 -40 58 -28 11 10 13 16 4 26 -13 16 0 40 55 99 57 60 52
63 -84 67 -114 3 -120 2 -120 -17z"/>
<path d="M4360 1550 c0 -18 7 -20 65 -20 l65 0 0 -34 c0 -58 -7 -66 -59 -66
l-46 0 0 -160 c0 -159 0 -160 23 -160 22 0 22 1 22 140 l0 140 105 0 105 0 0
-140 c0 -139 0 -140 23 -140 22 0 22 1 22 160 l0 160 -77 0 c-86 0 -86 0 -72
69 l7 31 83 0 c77 0 84 2 84 20 0 19 -7 20 -175 20 -168 0 -175 -1 -175 -20z"/>
<path d="M3623 1361 c-60 -66 -61 -68 -40 -81 20 -12 26 -8 79 51 32 35 58 67
58 71 0 4 -8 12 -18 17 -15 8 -29 -2 -79 -58z"/>
<path d="M3820 1415 c-10 -12 -7 -21 23 -54 20 -22 43 -51 52 -65 14 -21 20
-23 36 -13 10 6 19 15 19 19 0 8 -99 121 -110 126 -4 1 -13 -4 -20 -13z"/>
<path d="M4508 1253 c-7 -143 -39 -203 -136 -260 -40 -23 -42 -27 -28 -42 15
-14 19 -14 49 3 53 31 116 97 132 141 9 22 21 86 28 142 11 87 11 103 -1 108
-36 13 -39 6 -44 -92z"/>
<path d="M4060 1320 c0 -18 7 -20 60 -20 l60 0 0 -129 c0 -71 -3 -136 -6 -145
-4 -10 -18 -16 -40 -16 -34 0 -39 -6 -28 -34 9 -23 69 -21 94 4 18 18 20 33
20 170 l0 150 36 0 c36 0 36 0 30 -34 -5 -28 -3 -34 14 -39 16 -4 22 2 30 36
6 23 13 50 16 60 5 16 -6 17 -140 17 -139 0 -146 -1 -146 -20z"/>
<path d="M5133 1303 c-7 -2 -13 -11 -13 -19 0 -11 -28 -14 -155 -14 -131 0
-155 -2 -155 -15 0 -13 44 -15 335 -15 291 0 335 2 335 15 0 13 -24 15 -154
15 -146 0 -155 1 -161 20 -6 20 -11 22 -32 13z"/>
<path d="M3580 1223 c0 -22 4 -23 75 -23 l75 0 0 -90 0 -90 -95 0 c-92 0 -95
-1 -95 -22 l0 -23 220 0 220 0 0 23 c0 21 -3 22 -100 22 l-100 0 0 90 0 90 75
0 c71 0 75 1 75 23 0 22 0 22 -175 22 -175 0 -175 0 -175 -22z"/>
<path d="M4930 1190 c0 -19 7 -20 215 -20 208 0 215 1 215 20 0 19 -7 20 -215
20 -208 0 -215 -1 -215 -20z"/>
<path d="M4930 1120 c0 -19 7 -20 215 -20 208 0 215 1 215 20 0 19 -7 20 -215
20 -208 0 -215 -1 -215 -20z"/>
<path d="M4567 1067 c-7 -18 118 -118 138 -111 25 10 18 20 -49 73 -67 53 -81
59 -89 38z"/>
<path d="M4920 1005 c0 -58 2 -65 20 -65 11 0 20 5 20 10 0 6 68 10 185 10
117 0 185 -4 185 -10 0 -5 9 -10 20 -10 18 0 20 7 20 65 l0 65 -225 0 -225 0
0 -65z m410 10 l0 -25 -185 0 -185 0 0 25 0 25 185 0 185 0 0 -25z"/>
</g>
</svg>
